# xmcd
#
# Track frame offsets:
#	150
#	15456
#	35707
#	50817
#	72705
#	97396
#	116771
#	140559
#	156627
#	175613
#	194394
#	215461
#	232605
#	253380
#	271800
#
# Disc length: 3868 seconds
#
# Revision: 0
# Processed by: cddbd v1.5.1PL0 Copyright (c) Steve Scherf et al.
# Submitted via: dBpowerAMP V4.0
#
DISCID=e90f1a0f
DTITLE=Cross Canadian Ragweed - Garage
DYEAR=2005
DGENRE=Country
TTITLE0=Fightin' For
TTITLE1=After All
TTITLE2=Dimebag
TTITLE3=Breakdown
TTITLE4=Sister
TTITLE5=When It All Goes Down
TTITLE6=Final Curtain
TTITLE7=Late Last Night
TTITLE8=Blues For You
TTITLE9=SS #10
TTITLE10=Lighthouse Keeper
TTITLE11=This Time Around
TTITLE12=Who Do You Love
TTITLE13=Bad Habit
TTITLE14=Untitled
EXTD=
EXTT0=
EXTT1=
EXTT2=
EXTT3=
EXTT4=
EXTT5=
EXTT6=
EXTT7=
EXTT8=
EXTT9=
EXTT10=
EXTT11=
EXTT12=
EXTT13=
EXTT14=
PLAYORDER=
